# xmcd
#
# Track frame offsets:
#	150
#	21154
#	43308
#	73352
#	99696
#	135222
#	152301
#	172386
#	195286
#	213343
#	235686
#	273181
#
# Disc length: 3976 seconds
#
# Revision: 1
# Processed by: cddbd v1.4PL0 Copyright (c) Steve Scherf et al.
# Submitted via: audiograbber 1.82.02
#
DISCID=a30f860c
DTITLE=Billy Hector - Out of Order - The Stone Pony Sessions
DYEAR=2003
DGENRE=Blues
TTITLE0=Hammer
TTITLE1=Howlin' for My Baby
TTITLE2=Daddy Rollin' Stone
TTITLE3=Whiskey
TTITLE4=Old School Thang
TTITLE5=Busted
TTITLE6=Memphis Train
TTITLE7=Big Legs, Tight Skirt
TTITLE8=Patricia
TTITLE9=Stop Doggin' Me `Round
TTITLE10=Dealin' with the Devil
TTITLE11=Data Track
EXTD=
EXTT0=
EXTT1=
EXTT2=
EXTT3=
EXTT4=
EXTT5=
EXTT6=
EXTT7=
EXTT8=
EXTT9=
EXTT10=
EXTT11=
PLAYORDER=
